<svg id="svg" version="1.1" xmlns="http://www.w3.org/2000/svg" xmlns:xlink="http://www.w3.org/1999/xlink" width="400" height="131.61764705882354" viewBox="0, 0, 400,131.61764705882354"><g id="svgg"><path id="path0" d="M6.533 26.200 C 6.301 26.432,6.241 49.596,6.471 49.959 C 6.577 50.125,9.696 50.160,21.510 50.126 L 36.417 50.083 36.459 38.268 C 36.491 29.679,36.451 26.392,36.314 26.227 C 36.053 25.913,6.847 25.886,6.533 26.200 M124.000 26.250 C 112.291 27.653,106.079 33.510,104.644 44.500 C 104.427 46.167,104.200 49.697,104.294 49.958 C 104.354 50.124,111.033 50.167,136.936 50.167 L 169.502 50.167 169.459 38.125 L 169.417 26.083 147.583 26.062 C 130.971 26.046,125.332 26.091,124.000 26.250 M185.249 26.375 C 185.199 26.581,185.179 32.000,185.204 38.417 L 185.250 50.083 217.833 50.083 L 250.417 50.083 250.463 38.417 C 250.488 32.000,250.468 26.581,250.418 26.375 L 250.327 26.000 217.833 26.000 L 185.340 26.000 185.249 26.375 M260.743 26.208 C 260.700 26.323,260.683 31.742,260.707 38.250 L 260.750 50.083 281.292 50.126 L 301.833 50.168 301.833 52.833 L 301.833 55.499 281.292 55.541 L 260.750 55.583 260.708 82.149 C 260.677 101.645,260.716 108.775,260.853 108.941 C 261.141 109.287,309.195 109.271,312.083 108.923 C 315.129 108.556,317.086 108.091,319.667 107.121 C 327.439 104.199,331.836 96.448,331.833 85.672 C 331.830 78.305,328.923 72.994,322.649 68.897 C 321.753 68.312,320.945 67.833,320.853 67.833 C 320.292 67.833,320.697 67.423,322.064 66.608 C 329.866 61.952,332.895 54.993,331.504 44.917 C 329.905 33.328,323.971 27.649,312.000 26.251 C 309.132 25.916,260.870 25.876,260.743 26.208 M341.779 26.110 C 341.717 26.172,341.667 31.610,341.667 38.195 L 341.667 50.168 356.625 50.126 L 371.583 50.083 371.583 38.083 L 371.583 26.083 356.737 26.041 C 348.572 26.017,341.840 26.049,341.779 26.110 M6.533 55.700 C 6.135 56.098,6.256 108.780,6.656 108.994 C 7.005 109.181,59.086 109.251,59.570 109.066 C 59.807 108.975,59.833 107.755,59.833 96.982 L 59.833 85.000 48.167 85.000 L 36.500 85.000 36.500 70.514 C 36.500 62.546,36.454 55.909,36.399 55.764 C 36.266 55.416,6.879 55.354,6.533 55.700 M104.312 55.708 C 103.682 61.769,106.332 69.687,110.323 73.675 C 112.665 76.015,117.204 78.500,119.136 78.500 C 119.306 78.500,119.500 78.555,119.567 78.622 C 120.267 79.322,125.642 79.662,136.042 79.665 L 145.333 79.667 145.333 82.333 L 145.333 84.998 127.792 85.041 L 110.250 85.083 110.207 96.989 C 110.173 106.404,110.208 108.923,110.374 109.029 C 110.776 109.284,153.519 109.188,155.667 108.927 C 162.083 108.148,166.237 106.342,169.644 102.850 C 171.589 100.856,173.302 97.874,174.010 95.250 C 175.209 90.805,175.331 89.615,175.331 82.333 C 175.331 74.837,175.152 73.183,173.886 69.000 C 172.126 63.180,167.106 58.282,161.417 56.833 C 161.142 56.763,160.323 56.543,159.598 56.345 C 156.594 55.523,156.024 55.507,129.292 55.503 C 109.446 55.501,104.329 55.543,104.312 55.708 M202.945 55.610 C 202.671 55.885,202.821 108.960,203.097 109.066 C 203.702 109.298,232.451 109.176,232.647 108.941 C 232.784 108.775,232.823 101.645,232.792 82.149 L 232.750 55.583 217.904 55.541 C 209.738 55.517,203.007 55.549,202.945 55.610 M341.779 55.610 C 341.504 55.885,341.655 108.960,341.930 109.066 C 342.479 109.276,394.755 109.179,394.967 108.967 C 395.179 108.755,395.274 85.808,395.066 85.264 C 394.975 85.027,393.784 85.000,383.316 85.000 L 371.668 85.000 371.626 70.292 L 371.583 55.583 356.737 55.541 C 348.572 55.517,341.840 55.549,341.779 55.610 M301.833 82.333 L 301.833 85.000 296.250 85.000 L 290.667 85.000 290.667 82.333 L 290.667 79.667 296.250 79.667 L 301.833 79.667 301.833 82.333 " stroke="none" fill="#fcfcfc" fill-rule="evenodd"></path><path id="path1" d="M72.000 37.000 L 72.000 48.833 83.917 48.833 L 95.833 48.833 95.833 37.000 L 95.833 25.167 83.917 25.167 L 72.000 25.167 72.000 37.000 M72.292 56.013 C 72.018 56.173,72.000 56.918,72.000 67.922 L 72.000 79.660 72.375 79.751 C 72.581 79.801,77.925 79.821,84.250 79.796 L 95.750 79.750 95.793 67.895 L 95.836 56.039 95.459 55.939 C 94.784 55.758,72.608 55.829,72.292 56.013 M72.077 87.041 C 72.033 87.156,72.016 92.500,72.040 98.917 L 72.083 110.583 83.917 110.583 L 95.750 110.583 95.750 98.750 L 95.750 86.917 83.954 86.874 C 74.605 86.840,72.140 86.875,72.077 87.041 " stroke="none" fill="#d4041b" fill-rule="evenodd"></path></g></svg>
